<?xml version="1.0" encoding="utf-8"?>
<!-- Generator: Adobe Illustrator 17.1.0, SVG Export Plug-In . SVG Version: 6.00 Build 0)  -->
<!DOCTYPE svg PUBLIC "-//W3C//DTD SVG 1.1//EN" "http://www.w3.org/Graphics/SVG/1.1/DTD/svg11.dtd">
<svg version="1.1" id="Layer_1" xmlns="http://www.w3.org/2000/svg" xmlns:xlink="http://www.w3.org/1999/xlink" x="0px" y="0px"
	 viewBox="0 0 276 192.553" enable-background="new 0 0 276 192.553" xml:space="preserve">
<g id="XMLID_3_">
	<g>
		<polygon fill="#E8D8BF" points="267.789,212.973 267.789,215.783 255.369,218.653 267.789,192.553 		"/>
		<polygon fill="#FEEEE4" points="267.789,192.553 255.369,218.653 71.489,261.123 31.119,247.223 		"/>
	</g>
</g>
<g id="XMLID_4_">
	<g>
		<path fill="#D4830D" d="M259.276,44.422c0.94,2.28-0.36,3.92-2.33,5.54v-12.58v-2.81
			C261.056,34.282,257.536,40.212,259.276,44.422z"/>
		<path fill="#E8D8BF" d="M256.946,49.962v11.44l-8.96,2.07c0.4-1.34,0.71-2.78,0.96-4.38
			C249.626,54.742,254.026,52.372,256.946,49.962z"/>
		<path fill="#D4830D" d="M256.946,37.382v12.58c-2.92,2.41-7.32,4.78-8,9.13c-0.25,1.6-0.56,3.04-0.96,4.38l-3.88,0.9
			L256.946,37.382z"/>
		<polygon fill="#E8D8BF" points="256.946,34.572 256.946,37.382 244.526,40.252 256.946,14.152 		"/>
		<polygon fill="#FFFFFF" points="256.946,14.152 244.526,40.252 60.646,82.722 20.276,68.822 		"/>
		<polygon fill="#E8D8BF" points="256.946,37.382 244.106,64.372 231.686,67.232 244.526,40.252 		"/>
		<path fill="#E8D8BF" d="M256.946,61.402l-33.16,69.69l-2.14-1.02c0.72-1.46,1.14-3.16,1.11-5.21c-0.11-7.34-1.87-10.82-0.28-14.47
			c0.38-0.88,0.96-1.77,1.8-2.72c4.34-4.91,10.2-1.33,12.27-11.79c2.07-10.46-0.6-13.46,4.07-19.46c3.64-4.68,5.98-8.18,7.37-12.95
			L256.946,61.402z"/>
		<path fill="#D4830D" d="M244.106,64.372l3.88-0.9c-1.39,4.77-3.73,8.27-7.37,12.95c-4.67,6-2,9-4.07,19.46
			c-2.07,10.46-7.93,6.88-12.27,11.79c-0.84,0.95-1.42,1.84-1.8,2.72l-0.22-0.1L244.106,64.372z"/>
		<polygon fill="#FFFFFF" points="244.526,40.252 231.686,67.232 102.386,97.102 60.646,82.722 		"/>
		<polygon fill="#E8D8BF" points="244.106,64.372 222.256,110.292 201.276,154.382 201.276,131.152 231.686,67.232 		"/>
		<polygon fill="#FFFFFF" points="231.686,67.232 201.276,131.152 102.386,97.102 		"/>
		<path fill="#E8D8BF" d="M223.786,131.092l-22.51,47.31v-21.77c7.99-4,8.09-11.39,10.34-15.87c1.8-3.62,7.59-5.7,10.03-10.69
			L223.786,131.092z"/>
		<path fill="#D4830D" d="M222.756,124.862c0.03,2.05-0.39,3.75-1.11,5.21c-2.44,4.99-8.23,7.07-10.03,10.69
			c-2.25,4.48-2.35,11.87-10.34,15.87v-2.25l20.98-44.09l0.22,0.1C220.886,114.042,222.646,117.522,222.756,124.862z"/>
		<path fill="#FFFFFF" d="M201.276,156.632v21.77l-181-62.34l34.1-7.88c6.63,0.88,13.89,1.37,15.57,5.58
			c2.67,6.66,13.76,2.37,23.67,4.66c1.24,0.29,2.33,0.61,3.31,0.95c6.84,2.42,8.14,6.1,16.02,8.72c9,3,14.33,2,17.67,5
			c3.33,3,9.33,8.67,16.33,8.67c5.09,0,12.47-0.53,17.79,1.23c1.99,0.66,3.69,1.64,4.88,3.1c4.33,5.33,21.68,14.87,30.66,11
			C200.626,156.942,200.956,156.792,201.276,156.632z"/>
		<path fill="#D4830D" d="M201.276,154.382v2.25c-0.32,0.16-0.65,0.31-1,0.46c-8.98,3.87-26.33-5.67-30.66-11
			c-1.19-1.46-2.89-2.44-4.88-3.1l0.37-1.07L201.276,154.382z"/>
		<polygon fill="#FFFFFF" points="201.276,131.152 201.276,154.382 165.106,141.922 97.206,118.542 62.006,106.422 102.386,97.102 
					"/>
		<path fill="#D4830D" d="M165.106,141.922l-0.37,1.07c-5.32-1.76-12.7-1.23-17.79-1.23c-7,0-13-5.67-16.33-8.67
			c-3.34-3-8.67-2-17.67-5c-7.88-2.62-9.18-6.3-16.02-8.72l0.28-0.83L165.106,141.922z"/>
		<path fill="#FFFFFF" d="M60.646,82.722l41.74,14.38l-40.38,9.32l-19.28-6.64c0.28-2.65,0.23-4.54-9.67-3.33l-12.78-4.4l7.39-1.71
			L60.646,82.722z"/>
		<path fill="#D4830D" d="M97.206,118.542l-0.28,0.83c-0.98-0.34-2.07-0.66-3.31-0.95c-9.91-2.29-21,2-23.67-4.66
			c-1.68-4.21-8.94-4.7-15.57-5.58l7.63-1.76L97.206,118.542z"/>
		<path fill="#D4830D" d="M62.006,106.422l-7.63,1.76c-3.88-0.51-7.55-1.16-9.76-2.76c-2.41-1.74-2.08-3.86-1.89-5.64
			L62.006,106.422z"/>
		<path fill="#FFFFFF" d="M60.646,82.722l-32.98,7.62c-3.18-0.26-5.61-0.21-7.39,0.04v-21.56L60.646,82.722z"/>
		<path fill="#FFFFFF" d="M54.376,108.182l-34.1,7.88v-20.55c2.96,1.02,7.43,1.59,12.78,0.94l9.67,3.33
			c-0.19,1.78-0.52,3.9,1.89,5.64C46.826,107.022,50.496,107.672,54.376,108.182z"/>
		<path fill="#FFFFFF" d="M33.056,96.452c9.9-1.21,9.95,0.68,9.67,3.33L33.056,96.452z"/>
		<path fill="#D4830D" d="M20.276,92.052l12.78,4.4c-5.35,0.65-9.82,0.08-12.78-0.94V92.052z"/>
		<path fill="#FEEEE4" d="M27.666,90.342l-7.39,1.71v-1.67C22.056,90.132,24.486,90.082,27.666,90.342z"/>
		<path fill="#D4830D" d="M20.276,92.052v3.46c-4.71-1.62-5.58-4.37,0-5.13V92.052z"/>
	</g>
</g>
</svg>
